{"title":"Hanna (2011) 720p MKV x264 DTS BRrip [Pioneer]","uid":8236831,"size":3028240103,"categoryP":"video","categoryS":"hd___movies","magnet":"?xt=urn:btih:4575be9eb1cd901744014cf26a601ff0b6fcc1ff&amp;dn=Hanna+%282011%29+720p+MKV+x264+DTS+BRrip+%5BPioneer%5D&amp;tr=udp%3A%2F%2Ftracker.openbittorrent.com%3A80&amp;tr=udp%3A%2F%2Fopen.demonii.com%3A1337&amp;tr=udp%3A%2F%2Ftracker.coppersurfer.tk%3A6969&amp;tr=udp%3A%2F%2Fexodus.desync.com%3A6969","seeders":1,"leechers":0,"uploader":"Pioneer47","files":-1,"time":1362855831,"description":"Hanna (Ronan) is a teenage girl. Uniquely, she has the strength, the stamina, and the smarts of a soldier; these come from being raised by her father (Bana), an ex-CIA man, in the wilds of Finland. Living a life unlike any other teenager, her upbringing and training have been one and the same, all geared to making her the perfect assassin. The turning point in her adolescence is a sharp one; sent into the world by her father on a mission, Hanna journeys stealthily across Europe while eluding agents dispatched after her by a ruthless intelligence operative with secrets of her own (Cate Blanchett). As she nears her ultimate target, Hanna faces startling revelations about her existence and unexpected questions about her humanity\n\nStarring: Saoirse Ronan, Cate Blanchett, Eric Bana, Olivia Williams, Michelle Dockery\nDirector: Joe Wright\n\n &lt;a href=&quot;\nhttp://www.imdb.com/title/tt0993842/&quot; rel=&quot;nofollow&quot; target=&quot;_NEW&quot;&gt;\nhttp://www.imdb.com/title/tt0993842/&lt;/a&gt;\n\n\n &lt;a href=&quot;\nhttp://stpicz.com/4496_vlcsnap_2013_03_09_17h21m29s156_9q50.png&quot; rel=&quot;nofollow&quot; target=&quot;_NEW&quot;&gt;\nhttp://stpicz.com/4496_vlcsnap_2013_03_09_17h21m29s156_9q50.png&lt;/a&gt; &lt;a href=&quot;\nhttp://stpicz.com/0460_vlcsnap_2013_03_09_17h27m55s172_9m52.png&quot; rel=&quot;nofollow&quot; target=&quot;_NEW&quot;&gt;\nhttp://stpicz.com/0460_vlcsnap_2013_03_09_17h27m55s172_9m52.png&lt;/a&gt; &lt;a href=&quot;\nhttp://stpicz.com/0446_vlcsnap_2013_03_09_17h25m01s231_jew5.png&quot; rel=&quot;nofollow&quot; target=&quot;_NEW&quot;&gt;\nhttp://stpicz.com/0446_vlcsnap_2013_03_09_17h25m01s231_jew5.png&lt;/a&gt; &lt;a href=&quot;\nhttp://stpicz.com/5492_vlcsnap_2013_03_09_16h54m45s245_f1h2.png&quot; rel=&quot;nofollow&quot; target=&quot;_NEW&quot;&gt;\nhttp://stpicz.com/5492_vlcsnap_2013_03_09_16h54m45s245_f1h2.png&lt;/a&gt; &lt;a href=&quot;\nhttp://stpicz.com/2315_vlcsnap_2013_03_09_16h53m31s5_r17o.png&quot; rel=&quot;nofollow&quot; target=&quot;_NEW&quot;&gt;\nhttp://stpicz.com/2315_vlcsnap_2013_03_09_16h53m31s5_r17o.png&lt;/a&gt; &lt;a href=&quot;\nhttp://stpicz.com/2833_vlcsnap_2013_03_09_16h56m38s91_wz60.png&quot; rel=&quot;nofollow&quot; target=&quot;_NEW&quot;&gt;\nhttp://stpicz.com/2833_vlcsnap_2013_03_09_16h56m38s91_wz60.png&lt;/a&gt; &lt;a href=&quot;\nhttp://stpicz.com/4594_vlcsnap_2013_03_09_17h23m28s58_t0oe.png&quot; rel=&quot;nofollow&quot; target=&quot;_NEW&quot;&gt;\nhttp://stpicz.com/4594_vlcsnap_2013_03_09_17h23m28s58_t0oe.png&lt;/a&gt; &lt;a href=&quot;\nhttp://stpicz.com/7814_vlcsnap_2013_03_09_17h20m40s181_hlmt.png&quot; rel=&quot;nofollow&quot; target=&quot;_NEW&quot;&gt;\nhttp://stpicz.com/7814_vlcsnap_2013_03_09_17h20m40s181_hlmt.png&lt;/a&gt;\n\n\nGeneral\nUnique ID: 48479582950427425446544220508822167486 (0x2478D3FB0E61DFDDF054FFCB8EABDFBE)\nComplete name: D:Hanna (2011) 720p MKV x264 DTS BRrip [Pioneer].mkv\nFormat: Matroska\nFormat version: Version 2\nFile size: 2.82 GiB\nDuration: 1h 51mn\nOverall bit rate: 3 636 Kbps\nWriting application: HandBrake 0.9.8\nWriting library: libmkv 0.6.5\n\nVideo\nID: 1\nFormat: AVC\nFormat/Info: Advanced Video Codec\nFormat profile: &lt;a class=&quot;__cf_email__&quot; href=&quot;/cdn-cgi/l/email-protection&quot; data-cfemail=&quot;6e260709062e225d405f&quot;&gt;[email&amp;#160;protected]&lt;/a&gt;&lt;script cf-hash='f9e31' type=&quot;text/javascript&quot;&gt;\n/* &lt;![CDATA[ */!function(){try{var t=&quot;currentScript&quot;in document?document.currentScript:function(){for(var t=document.getElementsByTagName(&quot;script&quot;),e=t.length;e--;)if(t[e].getAttribute(&quot;cf-hash&quot;))return t[e]}();if(t&amp;&amp;t.previousSibling){var e,r,n,i,c=t.previousSibling,a=c.getAttribute(&quot;data-cfemail&quot;);if(a){for(e=&quot;&quot;,r=parseInt(a.substr(0,2),16),n=2;a.length-n;n+=2)i=parseInt(a.substr(n,2),16)^r,e+=String.fromCharCode(i);e=document.createTextNode(e),c.parentNode.replaceChild(e,c)}}}catch(u){}}();/* ]]&gt; */&lt;/script&gt;\nFormat settings, CABAC: Yes\nFormat settings, ReFrames: 5 frames\nCodec ID: V_MPEG4/ISO/AVC\nDuration: 1h 51mn\nBit rate: 2 055 Kbps\nWidth: 1 280 pixels\nHeight: 528 pixels\nDisplay aspect ratio: 2.40:1\nFrame rate mode: Constant\nFrame rate: 23.976 fps\nColor space: YUV\nChroma subsampling: 4:2:0\nBit depth: 8 bits\nScan type: Progressive\nBits/(Pixel*Frame): 0.127\nStream size: 1.59 GiB (57%)\nWriting library: x264 core 120\nLanguage: English\nDefault: Yes\nForced: No\nColor primaries: BT.709\nTransfer characteristics: BT.709\nMatrix coefficients: BT.709\n\nAudio\nID: 2\nFormat: DTS\nFormat/Info: Digital Theater Systems\nMode: 16\nFormat settings, Endianness: Big\nCodec ID: A_DTS\nDuration: 1h 51mn\nBit rate mode: Constant\nBit rate: 1 509 Kbps\nChannel(s): 6 channels\nChannel positions: Front: L C R, Side: L R, LFE\nSampling rate: 48.0 KHz\nBit depth: 24 bits\nCompression mode: Lossy\nStream size: 1.17 GiB (41%)\nDefault: Yes\nForced: No","torrent":{"xt":"urn:btih:4575be9eb1cd901744014cf26a601ff0b6fcc1ff","amp;dn":"Hanna+%282011%29+720p+MKV+x264+DTS+BRrip+%5BPioneer%5D","amp;tr":["udp%3A%2F%2Ftracker.openbittorrent.com%3A80","udp%3A%2F%2Fopen.demonii.com%3A1337","udp%3A%2F%2Ftracker.coppersurfer.tk%3A6969","udp%3A%2F%2Fexodus.desync.com%3A6969"],"infoHash":"4575be9eb1cd901744014cf26a601ff0b6fcc1ff","infoHashBuffer":{"type":"Buffer","data":[69,117,190,158,177,205,144,23,68,1,76,242,106,96,31,240,182,252,193,255]},"announce":[],"urlList":[]}}